M48
;Layer_Color=9474304
;FILE_FORMAT=2:4
INCH,TZ
;TYPE=PLATED
T1F00S00C0.0280
T2F00S00C0.0350
T3F00S00C0.0354
T4F00S00C0.0470
T5F00S00C0.0787
%
T01
X36620Y23320
X40270Y32980
T02
X32940Y24440
X33728
X34515
Y26840
X33728
X32940
Y29240
X33728
X34515
X37150Y28500
Y27713
Y26925
X39550Y26020
Y25232
Y24445
X41950
Y25232
Y26020
X44350
Y25232
Y24445
X44340Y28455
Y29243
Y30030
X41980Y29280
Y28493
X39580
Y29280
X30315Y29240
X29528
X28740
Y26840
X29528
X30315
Y24440
X29528
X28740
X21550Y24315
X20369
Y22150
X21550
X18637Y23100
X17850
X17418Y25990
X16630
Y28590
X17418
Y31190
X16630
Y33790
X17418
Y36390
X16630
Y38990
X17418
X28740Y31640
X29528
X30315
X32940
X33728
X34515
X38240Y33933
Y34720
X40640
Y33933
X43163Y34025
Y33237
Y32450
X43950
Y33237
Y34025
Y34812
X43163
X42600Y36700
X41813
X39582Y39200
X38795
X38007
X37220
T03
X25350Y23900
X26350
T04
X47780Y24290
Y25290
Y26290
Y27290
Y28290
Y29290
Y30290
X50050Y30350
Y29350
Y28350
X51050
Y29350
Y30350
Y27350
X50050
Y26350
X51050
Y25350
X50050
Y24350
X51050
X46780Y24290
Y25290
Y26290
Y27290
Y28290
Y29290
Y30290
X45833Y22392
X44833
X43833
X42833
X41833
X40833
X39833
X38833
X36865
X35865
X34865
X33865
X32865
X31865
X30865
X29865
X27731
X26731
X25731
X24731
X23731
X22731
X22630Y25290
X21630
X20630
X19630
X23630
X24630
X25630
X26630
Y30408
X25630
X24630
X23630
X22630
X21630
X20630
X19630
Y34090
X20630
X21630
X22630
X23630
X24630
X25630
X26630
X28470Y34100
X29470
X30470
Y39218
X29470
X28470
X26630Y39208
X25630
X24630
X23630
X22630
X21630
X20630
X19630
X20060Y41290
X21060
X22060
X23060
X24060
X25060
X26060
X27660
X28660
X29660
X30660
X19060
X31660
X32660
X33660
X34660
X36826
X37826
X38826
X39826
X40826
X41826
X42826
X43826
X46780Y41290
Y40290
Y39290
Y38290
Y37290
Y36290
Y35290
Y34290
Y33290
Y32290
Y31290
X35470Y34100
X34470
X33470
X32470
X31470
Y39218
X32470
X33470
X34470
X35470
X47780Y39290
Y38290
Y37290
Y36290
Y35290
Y34290
Y33290
Y32290
Y31290
X50050Y31350
Y32350
X51050
Y31350
Y33350
Y34350
Y35350
X50050
Y36350
Y37350
X51050
Y38350
Y39350
X50050
Y38350
X51050Y36350
X50050Y34350
Y33350
X47780Y40290
Y41290
T05
X47928Y22392
X15841
X15911Y41240
X45438
M30
