%FSLAX24Y24*%
%MOIN*%
G70*
G01*
G75*
%ADD10R,0.0550X0.0520*%
%ADD11C,0.0100*%
%ADD12C,0.0787*%
%ADD13C,0.0680*%
%ADD14R,0.0591X0.0591*%
%ADD15C,0.0591*%
%ADD16C,0.0650*%
%ADD17R,0.0600X0.0600*%
%ADD18C,0.0600*%
%ADD19R,0.0550X0.0550*%
%ADD20C,0.0800*%
%ADD21R,0.0800X0.0800*%
%ADD22R,0.0600X0.0600*%
%ADD23R,0.0650X0.0650*%
%ADD24R,0.0550X0.0550*%
%ADD25R,0.0650X0.0650*%
%ADD26C,0.0500*%
%ADD27R,0.0500X0.0500*%
%ADD28R,0.0450X0.0450*%
%ADD29R,0.0500X0.0500*%
%ADD30C,0.0080*%
%ADD31C,0.0079*%
%ADD32C,0.0060*%
G36*
X43414Y40217D02*
X43418Y40213D01*
Y40208D01*
X43427Y40173D01*
Y40169D01*
X43432Y40160D01*
X43436Y40156D01*
Y40147D01*
X43484Y39870D01*
X43489Y39866D01*
X43493Y39861D01*
X43506Y39857D01*
X43722Y39760D01*
X43726D01*
X43730Y39756D01*
X43739D01*
X43752Y39760D01*
X43976Y39918D01*
X43981Y39923D01*
X43990Y39927D01*
X43994Y39932D01*
X44003Y39940D01*
X44025Y39954D01*
X44029Y39958D01*
X44034Y39962D01*
X44042D01*
X44051Y39954D01*
X44077Y39932D01*
X44095Y39910D01*
X44157Y39848D01*
X44183Y39826D01*
X44244Y39760D01*
X44266Y39743D01*
X44288Y39721D01*
X44293Y39712D01*
Y39703D01*
X44288Y39694D01*
X44271Y39668D01*
X44266Y39664D01*
X44262Y39655D01*
X44258Y39650D01*
X44253Y39642D01*
X44104Y39417D01*
X44099Y39413D01*
X44095Y39404D01*
Y39400D01*
Y39395D01*
X44196Y39163D01*
X44200Y39158D01*
X44209Y39154D01*
X44218Y39149D01*
X44482Y39097D01*
X44486D01*
X44499Y39092D01*
X44512D01*
X44539Y39083D01*
X44548D01*
X44552Y39079D01*
X44556Y39070D01*
Y39035D01*
Y39004D01*
Y38912D01*
Y38886D01*
Y38793D01*
Y38767D01*
Y38732D01*
Y38728D01*
X44548Y38723D01*
X44539Y38719D01*
X44512Y38710D01*
X44508D01*
X44499Y38706D01*
X44495D01*
X44486Y38701D01*
X44222Y38662D01*
X44218Y38657D01*
X44214Y38649D01*
Y38644D01*
X44209Y38640D01*
X44108Y38394D01*
X44104Y38385D01*
Y38380D01*
X44108Y38372D01*
X44253Y38161D01*
X44258Y38156D01*
X44262Y38143D01*
X44266Y38139D01*
X44271Y38130D01*
X44288Y38108D01*
X44293Y38104D01*
Y38095D01*
Y38090D01*
X44288Y38086D01*
X44266Y38060D01*
X44244Y38047D01*
X44179Y37976D01*
X44157Y37954D01*
X44095Y37893D01*
X44077Y37871D01*
X44051Y37849D01*
X44047Y37844D01*
X44038D01*
X44025Y37849D01*
X44003Y37862D01*
X43998Y37866D01*
X43990Y37875D01*
X43985Y37880D01*
X43976Y37884D01*
X43770Y38025D01*
X43765Y38029D01*
X43757D01*
X43748Y38025D01*
X43708Y38003D01*
X43704Y37998D01*
X43695Y37994D01*
X43691D01*
X43678Y37989D01*
X43638Y37963D01*
X43620D01*
X43616Y37967D01*
X43594Y38020D01*
Y38025D01*
X43590Y38033D01*
Y38038D01*
Y38047D01*
X43405Y38477D01*
Y38482D01*
X43401Y38490D01*
Y38495D01*
X43396Y38508D01*
X43383Y38534D01*
Y38539D01*
X43379Y38547D01*
X43383Y38552D01*
X43388Y38556D01*
X43418Y38574D01*
X43432Y38591D01*
X43436Y38596D01*
X43445Y38600D01*
X43458Y38609D01*
X43475Y38627D01*
X43515Y38666D01*
X43555Y38719D01*
X43559Y38723D01*
X43563Y38732D01*
X43572Y38750D01*
X43581Y38772D01*
X43590Y38798D01*
X43594Y38829D01*
X43603Y38864D01*
Y38899D01*
Y38903D01*
Y38912D01*
Y38925D01*
X43599Y38943D01*
X43590Y38991D01*
X43572Y39040D01*
Y39044D01*
X43568Y39053D01*
X43563Y39066D01*
X43555Y39079D01*
X43528Y39119D01*
X43493Y39158D01*
Y39163D01*
X43484Y39167D01*
X43462Y39189D01*
X43423Y39215D01*
X43379Y39237D01*
X43374D01*
X43366Y39242D01*
X43352Y39246D01*
X43335Y39255D01*
X43291Y39264D01*
X43238Y39268D01*
X43212D01*
X43190Y39264D01*
X43146Y39255D01*
X43093Y39237D01*
X43089D01*
X43084Y39233D01*
X43054Y39220D01*
X43014Y39193D01*
X42975Y39158D01*
X42966Y39149D01*
X42948Y39127D01*
X42922Y39088D01*
X42900Y39040D01*
Y39035D01*
X42895Y39026D01*
X42891Y39013D01*
X42887Y38996D01*
X42878Y38952D01*
X42874Y38899D01*
Y38895D01*
Y38881D01*
X42878Y38864D01*
Y38837D01*
X42891Y38780D01*
X42917Y38719D01*
X42922Y38714D01*
X42926Y38706D01*
X42935Y38692D01*
X42953Y38675D01*
X42988Y38631D01*
X43040Y38591D01*
X43045Y38587D01*
X43049Y38583D01*
X43054Y38578D01*
X43062Y38574D01*
X43089Y38556D01*
X43093D01*
Y38547D01*
X43098Y38543D01*
Y38534D01*
X43084Y38508D01*
X43080Y38503D01*
X43071Y38490D01*
Y38486D01*
X43067Y38477D01*
X42891Y38047D01*
X42887Y38042D01*
X42882Y38033D01*
Y38029D01*
X42878Y38020D01*
X42865Y37967D01*
X42860D01*
X42852Y37963D01*
X42843D01*
X42799Y37989D01*
X42794D01*
X42786Y37994D01*
X42781Y37998D01*
X42772Y38003D01*
X42733Y38025D01*
X42729Y38029D01*
X42711D01*
X42702Y38025D01*
X42496Y37884D01*
X42491Y37880D01*
X42482Y37871D01*
X42469Y37862D01*
X42447Y37849D01*
X42438Y37844D01*
X42434D01*
X42425Y37849D01*
X42408Y37871D01*
X42386Y37893D01*
X42320Y37954D01*
X42298Y37976D01*
X42228Y38047D01*
X42206Y38060D01*
X42188Y38086D01*
Y38090D01*
X42184Y38095D01*
Y38099D01*
Y38104D01*
X42188Y38108D01*
X42206Y38130D01*
Y38134D01*
X42210Y38143D01*
X42214Y38148D01*
X42223Y38161D01*
X42373Y38372D01*
Y38394D01*
X42272Y38640D01*
X42267Y38644D01*
X42258Y38649D01*
X42254Y38653D01*
X42250Y38662D01*
X41999Y38701D01*
X41995Y38706D01*
X41982D01*
X41977Y38710D01*
X41968D01*
X41933Y38719D01*
X41929D01*
X41924Y38723D01*
X41920Y38732D01*
Y38767D01*
Y38793D01*
Y38886D01*
Y38912D01*
Y39004D01*
Y39035D01*
Y39070D01*
Y39075D01*
Y39079D01*
X41924Y39083D01*
X41933D01*
X41968Y39092D01*
X41986D01*
X41995Y39097D01*
X42258Y39149D01*
X42267D01*
X42272Y39154D01*
X42276Y39163D01*
X42377Y39395D01*
Y39400D01*
Y39404D01*
Y39409D01*
Y39417D01*
X42219Y39642D01*
X42214Y39646D01*
X42210Y39655D01*
Y39659D01*
X42206Y39668D01*
X42184Y39694D01*
Y39699D01*
X42179Y39703D01*
X42184Y39707D01*
Y39721D01*
X42206Y39743D01*
X42228Y39760D01*
X42298Y39826D01*
X42320Y39848D01*
X42381Y39910D01*
X42403Y39932D01*
X42425Y39954D01*
X42430Y39958D01*
X42438D01*
X42447Y39954D01*
X42469Y39940D01*
X42474D01*
X42478Y39932D01*
X42496Y39918D01*
X42729Y39760D01*
X42733Y39756D01*
X42742D01*
X42750Y39760D01*
X42975Y39857D01*
X42983D01*
X42988Y39861D01*
Y39870D01*
X43045Y40147D01*
Y40173D01*
X43054Y40208D01*
Y40213D01*
X43058Y40217D01*
X43062Y40222D01*
X43067Y40226D01*
X43410D01*
X43414Y40217D01*
D02*
G37*
%LPC*%
G36*
X43357Y40156D02*
X43115D01*
X43054Y39800D01*
X43049D01*
X43040Y39795D01*
X43023Y39791D01*
X43001Y39787D01*
X42948Y39769D01*
X42887Y39747D01*
X42882D01*
X42874Y39743D01*
X42856Y39734D01*
X42838Y39725D01*
X42790Y39699D01*
X42737Y39668D01*
X42438Y39870D01*
X42355Y39787D01*
X42272Y39699D01*
X42469Y39409D01*
Y39404D01*
X42460Y39395D01*
X42452Y39382D01*
X42443Y39360D01*
X42412Y39312D01*
X42386Y39255D01*
Y39250D01*
X42381Y39242D01*
X42373Y39224D01*
X42368Y39202D01*
X42351Y39149D01*
X42333Y39083D01*
X41999Y39022D01*
Y38899D01*
Y38780D01*
X42324Y38719D01*
Y38714D01*
X42329Y38701D01*
X42333Y38684D01*
X42337Y38662D01*
X42355Y38605D01*
X42377Y38539D01*
Y38534D01*
X42381Y38525D01*
X42390Y38508D01*
X42399Y38486D01*
X42425Y38433D01*
X42460Y38380D01*
X42272Y38104D01*
X42355Y38020D01*
X42438Y37932D01*
X42715Y38117D01*
X42724Y38112D01*
X42746Y38095D01*
X42777Y38077D01*
X42812Y38060D01*
X43005Y38517D01*
X43001Y38521D01*
X42988Y38530D01*
X42970Y38543D01*
X42948Y38561D01*
X42926Y38583D01*
X42900Y38609D01*
X42852Y38675D01*
X42847Y38679D01*
X42843Y38692D01*
X42834Y38714D01*
X42825Y38741D01*
X42812Y38776D01*
X42803Y38811D01*
X42799Y38855D01*
X42794Y38899D01*
Y38903D01*
Y38917D01*
Y38934D01*
X42799Y38956D01*
X42808Y39009D01*
X42825Y39070D01*
Y39075D01*
X42834Y39083D01*
X42838Y39101D01*
X42852Y39119D01*
X42882Y39167D01*
X42922Y39211D01*
X42926Y39215D01*
X42935Y39220D01*
X42944Y39233D01*
X42961Y39246D01*
X43005Y39277D01*
X43062Y39308D01*
X43067D01*
X43076Y39312D01*
X43093Y39321D01*
X43115Y39330D01*
X43172Y39343D01*
X43238Y39347D01*
X43269D01*
X43291Y39343D01*
X43348Y39330D01*
X43405Y39308D01*
X43410D01*
X43418Y39303D01*
X43436Y39294D01*
X43454Y39281D01*
X43502Y39250D01*
X43550Y39211D01*
X43555Y39207D01*
X43559Y39202D01*
X43572Y39189D01*
X43585Y39171D01*
X43616Y39127D01*
X43647Y39070D01*
Y39066D01*
X43651Y39057D01*
X43660Y39040D01*
X43664Y39018D01*
X43678Y38965D01*
X43682Y38899D01*
Y38895D01*
Y38877D01*
X43678Y38855D01*
X43673Y38824D01*
X43669Y38789D01*
X43656Y38754D01*
X43642Y38714D01*
X43620Y38675D01*
X43616Y38670D01*
X43612Y38657D01*
X43599Y38640D01*
X43581Y38618D01*
X43559Y38596D01*
X43533Y38569D01*
X43467Y38517D01*
X43660Y38060D01*
X43664Y38064D01*
X43678Y38068D01*
X43695Y38077D01*
X43713Y38086D01*
X43717Y38090D01*
X43730Y38095D01*
X43748Y38104D01*
X43765Y38117D01*
X44034Y37932D01*
X44117Y38020D01*
X44200Y38104D01*
X44012Y38380D01*
X44016Y38385D01*
X44020Y38394D01*
X44029Y38407D01*
X44042Y38429D01*
X44069Y38477D01*
X44095Y38539D01*
Y38543D01*
X44099Y38552D01*
X44108Y38569D01*
X44117Y38596D01*
X44130Y38653D01*
X44148Y38719D01*
X44486Y38780D01*
Y38899D01*
Y39022D01*
X44148Y39083D01*
Y39088D01*
X44143Y39101D01*
X44139Y39119D01*
X44130Y39141D01*
X44113Y39193D01*
X44086Y39255D01*
Y39259D01*
X44082Y39268D01*
X44073Y39286D01*
X44064Y39303D01*
X44038Y39352D01*
X44003Y39409D01*
X44200Y39699D01*
X44117Y39787D01*
X44034Y39870D01*
X43744Y39668D01*
X43739D01*
X43730Y39677D01*
X43717Y39685D01*
X43695Y39694D01*
X43647Y39721D01*
X43590Y39747D01*
X43585D01*
X43577Y39751D01*
X43559Y39760D01*
X43537Y39769D01*
X43484Y39782D01*
X43418Y39800D01*
X43357Y40156D01*
D02*
G37*
%LPD*%
D11*
X48378Y22392D02*
G03*
X48378Y22392I-450J0D01*
G01*
X16291D02*
G03*
X16291Y22392I-450J0D01*
G01*
X16361Y41290D02*
G03*
X16361Y41290I-450J0D01*
G01*
X45888Y41240D02*
G03*
X45888Y41240I-450J0D01*
G01*
X51824Y20360D02*
Y26030D01*
X15114Y20360D02*
Y24440D01*
X35419Y20460D02*
X51824D01*
X15114D02*
X31200D01*
X51224Y20660D02*
X51824Y20460D01*
X51224Y20260D02*
X51824Y20460D01*
X15114D02*
X15714Y20260D01*
X15114Y20460D02*
X15714Y20660D01*
X47840Y20984D02*
X52400D01*
X47670Y42874D02*
X52400D01*
X52300Y20984D02*
Y29660D01*
Y33879D02*
Y42874D01*
Y20984D02*
X52500Y21584D01*
X52100D02*
X52300Y20984D01*
X52100Y42274D02*
X52300Y42874D01*
X52500Y42274D01*
X43200Y36050D02*
Y36850D01*
Y36050D02*
X43600D01*
X43200Y36850D02*
X43600D01*
X44800D02*
X45200D01*
Y36050D02*
Y36850D01*
X44800Y36050D02*
X45200D01*
X39790Y31520D02*
X40190D01*
X39790Y30720D02*
Y31520D01*
Y30720D02*
X40190D01*
X41390D02*
X41790D01*
X41390Y31520D02*
X41790D01*
Y30720D02*
Y31520D01*
X39790Y32520D02*
X40190D01*
X39790Y31720D02*
Y32520D01*
Y31720D02*
X40190D01*
X41390D02*
X41790D01*
X41390Y32520D02*
X41790D01*
Y31720D02*
Y32520D01*
X38920Y30730D02*
X39320D01*
Y31530D01*
X38920D02*
X39320D01*
X37320D02*
X37720D01*
X37320Y30730D02*
X37720D01*
X37320D02*
Y31530D01*
Y32530D02*
X37720D01*
X37320Y31730D02*
Y32530D01*
Y31730D02*
X37720D01*
X38920D02*
X39320D01*
X38920Y32530D02*
X39320D01*
Y31730D02*
Y32530D01*
X36150Y24400D02*
X36550D01*
X36150Y23600D02*
Y24400D01*
Y23600D02*
X36550D01*
X37750D02*
X38150D01*
X37750Y24400D02*
X38150D01*
Y23600D02*
Y24400D01*
X36150Y25450D02*
X36550D01*
X36150Y24650D02*
Y25450D01*
Y24650D02*
X36550D01*
X37750D02*
X38150D01*
X37750Y25450D02*
X38150D01*
Y24650D02*
Y25450D01*
D30*
X36146Y25803D02*
X38311D01*
X36146Y29622D02*
X38311D01*
X36146Y25803D02*
Y29622D01*
X38311Y25803D02*
Y29622D01*
X37524Y25803D02*
Y29622D01*
X31818Y24814D02*
X35637D01*
X31818Y25601D02*
X35637D01*
X31818Y23436D02*
X35637D01*
X31818D02*
Y25601D01*
X35637Y23436D02*
Y25601D01*
X31818Y29614D02*
X35637D01*
X31818Y30401D02*
X35637D01*
X31818Y28236D02*
X35637D01*
X31818D02*
Y30401D01*
X35637Y28236D02*
Y30401D01*
X31818Y32014D02*
X35637D01*
X31818Y32801D02*
X35637D01*
X31818Y30636D02*
X35637D01*
X31818D02*
Y32801D01*
X35637Y30636D02*
Y32801D01*
X27618Y24814D02*
X31437D01*
X27618Y25601D02*
X31437D01*
X27618Y23436D02*
X31437D01*
X27618D02*
Y25601D01*
X31437Y23436D02*
Y25601D01*
X27618Y27214D02*
X31437D01*
X27618Y28001D02*
X31437D01*
X27618Y25836D02*
X31437D01*
X27618D02*
Y28001D01*
X31437Y25836D02*
Y28001D01*
X27618Y29614D02*
X31437D01*
X27618Y30401D02*
X31437D01*
X27618Y28236D02*
X31437D01*
X27618D02*
Y30401D01*
X31437Y28236D02*
Y30401D01*
X27618Y32014D02*
X31437D01*
X27618Y32801D02*
X31437D01*
X27618Y30636D02*
X31437D01*
X27618D02*
Y32801D01*
X31437Y30636D02*
Y32801D01*
X27899Y39700D02*
X36020D01*
X27899Y33700D02*
X36020D01*
X27899D02*
Y39700D01*
X36020Y33700D02*
Y39700D01*
X46403Y21821D02*
Y22964D01*
X38262Y21821D02*
Y22964D01*
Y21821D02*
X46403D01*
X38262Y22964D02*
X46403D01*
X27180Y24890D02*
Y30890D01*
X19059Y24890D02*
Y30890D01*
Y24890D02*
X27180D01*
X19059Y30890D02*
X27180D01*
Y33690D02*
Y39690D01*
X19059Y33690D02*
Y39690D01*
Y33690D02*
X27180D01*
X19059Y39690D02*
X27180D01*
X37435Y21821D02*
Y22964D01*
X29294Y21821D02*
Y22964D01*
Y21821D02*
X37435D01*
X29294Y22964D02*
X37435D01*
X44396Y40719D02*
Y41861D01*
X36254Y40719D02*
Y41861D01*
Y40719D02*
X44396D01*
X36254Y41861D02*
X44396D01*
X35230Y40719D02*
Y41861D01*
X27089Y40719D02*
Y41861D01*
Y40719D02*
X35230D01*
X27089Y41861D02*
X35230D01*
X42324Y23323D02*
Y27142D01*
X43112Y23323D02*
Y27142D01*
X40946Y23323D02*
Y27142D01*
X43112D01*
X40946Y23323D02*
X43112D01*
X44724D02*
Y27142D01*
X45512Y23323D02*
Y27142D01*
X43346Y23323D02*
Y27142D01*
X45512D01*
X43346Y23323D02*
X45512D01*
X44714Y27333D02*
Y31152D01*
X45501Y27333D02*
Y31152D01*
X43336Y27333D02*
Y31152D01*
X45501D01*
X43336Y27333D02*
X45501D01*
X18540Y35386D02*
Y37551D01*
X15508Y35386D02*
Y37551D01*
Y35386D02*
X18540D01*
X15508Y37551D02*
X18540D01*
X15508Y36764D02*
X18540D01*
Y32786D02*
Y34951D01*
X15508Y32786D02*
Y34951D01*
Y32786D02*
X18540D01*
X15508Y34951D02*
X18540D01*
X15508Y34164D02*
X18540D01*
Y30186D02*
Y32351D01*
X15508Y30186D02*
Y32351D01*
Y30186D02*
X18540D01*
X15508Y32351D02*
X18540D01*
X15508Y31564D02*
X18540D01*
Y27586D02*
Y29751D01*
X15508Y27586D02*
Y29751D01*
Y27586D02*
X18540D01*
X15508Y29751D02*
X18540D01*
X15508Y28964D02*
X18540D01*
Y24986D02*
Y27151D01*
X15508Y24986D02*
Y27151D01*
Y24986D02*
X18540D01*
X15508Y27151D02*
X18540D01*
X15508Y26364D02*
X18540D01*
X41014Y32810D02*
Y35842D01*
X41801Y32810D02*
Y35842D01*
X39636Y32810D02*
Y35842D01*
X41801D01*
X39636Y32810D02*
X41801D01*
X42354Y27371D02*
Y30402D01*
X43141Y27371D02*
Y30402D01*
X40976Y27371D02*
Y30402D01*
X43141D01*
X40976Y27371D02*
X43141D01*
X39954D02*
Y30402D01*
X40741Y27371D02*
Y30402D01*
X38576Y27371D02*
Y30402D01*
X40741D01*
X38576Y27371D02*
X40741D01*
X49479Y23800D02*
X51621D01*
X49479Y39921D02*
X51621D01*
X49479Y23800D02*
Y39921D01*
X51621Y23800D02*
Y39921D01*
X42769Y32056D02*
Y35206D01*
X44344D01*
Y32056D02*
Y35206D01*
X42769Y32056D02*
X44344D01*
X44541D02*
Y35206D01*
X37236Y32810D02*
X39401D01*
X37236Y35842D02*
X39401D01*
X37236Y32810D02*
Y35842D01*
X39401Y32810D02*
Y35842D01*
X38614Y32810D02*
Y35842D01*
X36374Y39574D02*
X40429D01*
X36374Y40361D02*
X40429D01*
X36374Y38196D02*
X40429D01*
X36374D02*
Y40361D01*
X40429Y38196D02*
Y40361D01*
X16728Y23474D02*
X19760D01*
X16728Y24261D02*
X19760D01*
X16728Y22096D02*
X19760D01*
X16728D02*
Y24261D01*
X19760Y22096D02*
Y24261D01*
X46209Y23790D02*
X48351D01*
X46209Y41861D02*
X48351D01*
X46209Y23790D02*
Y41861D01*
X48351Y23790D02*
Y41861D01*
X31818Y27214D02*
X35637D01*
X31818Y28001D02*
X35637D01*
X31818Y25836D02*
X35637D01*
X31818D02*
Y28001D01*
X35637Y25836D02*
Y28001D01*
X18489Y41861D02*
X26630D01*
X18489Y40719D02*
X26630D01*
X18489D02*
Y41861D01*
X26630Y40719D02*
Y41861D01*
X38546Y23323D02*
X40712D01*
X38546Y27142D02*
X40712D01*
X38546Y23323D02*
Y27142D01*
X40712Y23323D02*
Y27142D01*
X39924Y23323D02*
Y27142D01*
X15508Y39364D02*
X18540D01*
X15508Y40151D02*
X18540D01*
X15508Y37986D02*
X18540D01*
X15508D02*
Y40151D01*
X18540Y37986D02*
Y40151D01*
X28281Y21821D02*
Y23042D01*
X22160Y21821D02*
Y23042D01*
Y21821D02*
X28281D01*
X22160Y23042D02*
X28281D01*
X20590Y21960D02*
X21250D01*
X20150Y22350D02*
Y24100D01*
X20590Y24530D02*
X21320D01*
X21740Y22420D02*
Y24100D01*
X41419Y36306D02*
X42994D01*
X41419Y37094D02*
X42994D01*
Y36306D02*
Y37094D01*
X41419Y36306D02*
Y37094D01*
X18847Y42640D02*
Y42240D01*
X18647D01*
X18580Y42307D01*
Y42440D01*
X18647Y42507D01*
X18847D01*
X19180Y42240D02*
X19047D01*
X18980Y42307D01*
Y42440D01*
X19047Y42507D01*
X19180D01*
X19246Y42440D01*
Y42373D01*
X18980D01*
X19380Y42507D02*
Y42240D01*
Y42373D01*
X19446Y42440D01*
X19513Y42507D01*
X19580D01*
X19780Y42240D02*
Y42507D01*
X19846D01*
X19913Y42440D01*
Y42240D01*
Y42440D01*
X19980Y42507D01*
X20046Y42440D01*
Y42240D01*
X20179D02*
X20313D01*
X20246D01*
Y42507D01*
X20179D01*
X20579Y42573D02*
Y42507D01*
X20513D01*
X20646D01*
X20579D01*
Y42307D01*
X20646Y42240D01*
X20846Y42507D02*
X21113D01*
X20846Y42240D01*
X21113D01*
X21312Y42507D02*
X21446D01*
X21512Y42440D01*
Y42240D01*
X21312D01*
X21246Y42307D01*
X21312Y42373D01*
X21512D01*
X22312Y42240D02*
X22046D01*
X22312Y42507D01*
Y42573D01*
X22245Y42640D01*
X22112D01*
X22046Y42573D01*
X22445D02*
X22512Y42640D01*
X22645D01*
X22712Y42573D01*
Y42307D01*
X22645Y42240D01*
X22512D01*
X22445Y42307D01*
Y42573D01*
X22845Y42240D02*
X22979D01*
X22912D01*
Y42640D01*
X22845Y42573D01*
X23179D02*
X23245Y42640D01*
X23378D01*
X23445Y42573D01*
Y42307D01*
X23378Y42240D01*
X23245D01*
X23179Y42307D01*
Y42573D01*
X23978Y42507D02*
Y42240D01*
Y42373D01*
X24045Y42440D01*
X24112Y42507D01*
X24178D01*
X24578Y42240D02*
X24445D01*
X24378Y42307D01*
Y42440D01*
X24445Y42507D01*
X24578D01*
X24645Y42440D01*
Y42373D01*
X24378D01*
X24778Y42507D02*
X24911Y42240D01*
X25045Y42507D01*
X25578Y42573D02*
X25644Y42640D01*
X25778D01*
X25844Y42573D01*
Y42307D01*
X25778Y42240D01*
X25644D01*
X25578Y42307D01*
Y42573D01*
X25978Y42240D02*
Y42307D01*
X26044D01*
Y42240D01*
X25978D01*
X26577D02*
X26311D01*
X26577Y42507D01*
Y42573D01*
X26511Y42640D01*
X26377D01*
X26311Y42573D01*
X44344Y31702D02*
Y31835D01*
Y31769D01*
X43944D01*
X44010Y31702D01*
X43379Y31772D02*
Y31505D01*
X43113Y31772D01*
X43046D01*
X42979Y31705D01*
Y31572D01*
X43046Y31505D01*
X43047Y35310D02*
X42980Y35377D01*
Y35510D01*
X43047Y35577D01*
X43113D01*
X43180Y35510D01*
X43247Y35577D01*
X43313D01*
X43380Y35510D01*
Y35377D01*
X43313Y35310D01*
X43247D01*
X43180Y35377D01*
X43113Y35310D01*
X43047D01*
X43180Y35377D02*
Y35510D01*
X43950Y35260D02*
Y35527D01*
X44017D01*
X44283Y35260D01*
X44350D01*
D31*
X26850Y23400D02*
Y24400D01*
X24850Y23400D02*
X26850D01*
X24850D02*
Y24400D01*
X26850D01*
D32*
X23320Y24840D02*
Y24573D01*
X23453Y24440D01*
X23587Y24573D01*
Y24840D01*
X23720Y24440D02*
Y24840D01*
X23853Y24707D01*
X23986Y24840D01*
Y24440D01*
X24320Y24840D02*
X24186D01*
X24120Y24773D01*
Y24507D01*
X24186Y24440D01*
X24320D01*
X24386Y24507D01*
Y24773D01*
X24320Y24840D01*
X24520D02*
X24786D01*
X24653D01*
Y24440D01*
X24919Y24640D02*
X25186D01*
X25319Y24840D02*
Y24573D01*
X25453Y24440D01*
X25586Y24573D01*
Y24840D01*
X25719D02*
X25853D01*
X25786D01*
Y24440D01*
X25719D01*
X25853D01*
X26052D02*
Y24840D01*
X26319Y24440D01*
Y24840D01*
X41390Y37650D02*
Y37250D01*
X41590D01*
X41657Y37317D01*
Y37583D01*
X41590Y37650D01*
X41390D01*
X41790Y37250D02*
X41923D01*
X41857D01*
Y37650D01*
X41790Y37583D01*
X27950Y40270D02*
Y39937D01*
X28017Y39870D01*
X28150D01*
X28217Y39937D01*
Y40270D01*
X28616Y39870D02*
X28350D01*
X28616Y40137D01*
Y40203D01*
X28550Y40270D01*
X28417D01*
X28350Y40203D01*
X20407Y21683D02*
X20340Y21750D01*
X20207D01*
X20140Y21683D01*
Y21617D01*
X20207Y21550D01*
X20340D01*
X20407Y21483D01*
Y21417D01*
X20340Y21350D01*
X20207D01*
X20140Y21417D01*
X20540Y21350D02*
X20673D01*
X20607D01*
Y21750D01*
X20540Y21683D01*
X22427Y21710D02*
X22293D01*
X22360D01*
Y21377D01*
X22293Y21310D01*
X22227D01*
X22160Y21377D01*
X22560Y21710D02*
X22826D01*
Y21643D01*
X22560Y21377D01*
Y21310D01*
X38547Y21710D02*
X38413D01*
X38480D01*
Y21377D01*
X38413Y21310D01*
X38347D01*
X38280Y21377D01*
X38946Y21710D02*
X38680D01*
Y21510D01*
X38813Y21577D01*
X38880D01*
X38946Y21510D01*
Y21377D01*
X38880Y21310D01*
X38747D01*
X38680Y21377D01*
X19130Y31530D02*
Y31197D01*
X19197Y31130D01*
X19330D01*
X19397Y31197D01*
Y31530D01*
X19530Y31463D02*
X19597Y31530D01*
X19730D01*
X19796Y31463D01*
Y31397D01*
X19730Y31330D01*
X19663D01*
X19730D01*
X19796Y31263D01*
Y31197D01*
X19730Y31130D01*
X19597D01*
X19530Y31197D01*
X19150Y40270D02*
Y39937D01*
X19217Y39870D01*
X19350D01*
X19417Y39937D01*
Y40270D01*
X19550Y39870D02*
X19683D01*
X19617D01*
Y40270D01*
X19550Y40203D01*
X15710Y26530D02*
Y26930D01*
X15843Y26797D01*
X15977Y26930D01*
Y26530D01*
X16376Y26930D02*
X16243Y26863D01*
X16110Y26730D01*
Y26597D01*
X16177Y26530D01*
X16310D01*
X16376Y26597D01*
Y26663D01*
X16310Y26730D01*
X16110D01*
X15710Y29130D02*
Y29530D01*
X15843Y29397D01*
X15977Y29530D01*
Y29130D01*
X16376Y29530D02*
X16110D01*
Y29330D01*
X16243Y29397D01*
X16310D01*
X16376Y29330D01*
Y29197D01*
X16310Y29130D01*
X16177D01*
X16110Y29197D01*
X15710Y31730D02*
Y32130D01*
X15843Y31997D01*
X15977Y32130D01*
Y31730D01*
X16310D02*
Y32130D01*
X16110Y31930D01*
X16376D01*
X15710Y34350D02*
Y34750D01*
X15843Y34617D01*
X15977Y34750D01*
Y34350D01*
X16110Y34683D02*
X16177Y34750D01*
X16310D01*
X16376Y34683D01*
Y34617D01*
X16310Y34550D01*
X16243D01*
X16310D01*
X16376Y34483D01*
Y34417D01*
X16310Y34350D01*
X16177D01*
X16110Y34417D01*
X15680Y36910D02*
Y37310D01*
X15813Y37177D01*
X15947Y37310D01*
Y36910D01*
X16346D02*
X16080D01*
X16346Y37177D01*
Y37243D01*
X16280Y37310D01*
X16147D01*
X16080Y37243D01*
X15710Y39500D02*
Y39900D01*
X15843Y39767D01*
X15977Y39900D01*
Y39500D01*
X16110D02*
X16243D01*
X16177D01*
Y39900D01*
X16110Y39833D01*
X44910Y27550D02*
X45243D01*
X45310Y27617D01*
Y27750D01*
X45243Y27817D01*
X44910D01*
X44977Y28216D02*
X44910Y28150D01*
Y28017D01*
X44977Y27950D01*
X45043D01*
X45110Y28017D01*
Y28150D01*
X45177Y28216D01*
X45243D01*
X45310Y28150D01*
Y28017D01*
X45243Y27950D01*
X45310Y28550D02*
X44910D01*
X45110Y28350D01*
Y28616D01*
X44930Y23480D02*
X45263D01*
X45330Y23547D01*
Y23680D01*
X45263Y23747D01*
X44930D01*
X44997Y24146D02*
X44930Y24080D01*
Y23947D01*
X44997Y23880D01*
X45063D01*
X45130Y23947D01*
Y24080D01*
X45197Y24146D01*
X45263D01*
X45330Y24080D01*
Y23947D01*
X45263Y23880D01*
X44997Y24280D02*
X44930Y24346D01*
Y24480D01*
X44997Y24546D01*
X45063D01*
X45130Y24480D01*
Y24413D01*
Y24480D01*
X45197Y24546D01*
X45263D01*
X45330Y24480D01*
Y24346D01*
X45263Y24280D01*
X42520Y23510D02*
X42853D01*
X42920Y23577D01*
Y23710D01*
X42853Y23777D01*
X42520D01*
X42587Y24176D02*
X42520Y24110D01*
Y23977D01*
X42587Y23910D01*
X42653D01*
X42720Y23977D01*
Y24110D01*
X42787Y24176D01*
X42853D01*
X42920Y24110D01*
Y23977D01*
X42853Y23910D01*
X42920Y24576D02*
Y24310D01*
X42653Y24576D01*
X42587D01*
X42520Y24510D01*
Y24376D01*
X42587Y24310D01*
X40130Y23510D02*
X40463D01*
X40530Y23577D01*
Y23710D01*
X40463Y23777D01*
X40130D01*
X40197Y24176D02*
X40130Y24110D01*
Y23977D01*
X40197Y23910D01*
X40263D01*
X40330Y23977D01*
Y24110D01*
X40397Y24176D01*
X40463D01*
X40530Y24110D01*
Y23977D01*
X40463Y23910D01*
X40530Y24310D02*
Y24443D01*
Y24376D01*
X40130D01*
X40197Y24310D01*
X29567Y21720D02*
X29433D01*
X29500D01*
Y21387D01*
X29433Y21320D01*
X29367D01*
X29300Y21387D01*
X29900Y21320D02*
Y21720D01*
X29700Y21520D01*
X29966D01*
X36527Y42390D02*
X36393D01*
X36460D01*
Y42057D01*
X36393Y41990D01*
X36327D01*
X36260Y42057D01*
X36660Y42323D02*
X36727Y42390D01*
X36860D01*
X36926Y42323D01*
Y42257D01*
X36860Y42190D01*
X36793D01*
X36860D01*
X36926Y42123D01*
Y42057D01*
X36860Y41990D01*
X36727D01*
X36660Y42057D01*
X27357Y42400D02*
X27223D01*
X27290D01*
Y42067D01*
X27223Y42000D01*
X27157D01*
X27090Y42067D01*
X27756Y42000D02*
X27490D01*
X27756Y42267D01*
Y42333D01*
X27690Y42400D01*
X27557D01*
X27490Y42333D01*
X18047Y41840D02*
X17913D01*
X17980D01*
Y41507D01*
X17913Y41440D01*
X17847D01*
X17780Y41507D01*
X18180Y41440D02*
X18313D01*
X18247D01*
Y41840D01*
X18180Y41773D01*
X45150Y42290D02*
Y41890D01*
Y42090D01*
X45417D01*
Y42290D01*
Y41890D01*
X45750D02*
Y42290D01*
X45550Y42090D01*
X45816D01*
X16610Y41610D02*
Y41210D01*
Y41410D01*
X16877D01*
Y41610D01*
Y41210D01*
X17010D02*
X17143D01*
X17077D01*
Y41610D01*
X17010Y41543D01*
X15490Y23410D02*
Y23010D01*
Y23210D01*
X15757D01*
Y23410D01*
Y23010D01*
X16156D02*
X15890D01*
X16156Y23277D01*
Y23343D01*
X16090Y23410D01*
X15957D01*
X15890Y23343D01*
X48630Y22580D02*
Y22180D01*
Y22380D01*
X48897D01*
Y22580D01*
Y22180D01*
X49030Y22513D02*
X49097Y22580D01*
X49230D01*
X49296Y22513D01*
Y22447D01*
X49230Y22380D01*
X49163D01*
X49230D01*
X49296Y22313D01*
Y22247D01*
X49230Y22180D01*
X49097D01*
X49030Y22247D01*
X27820Y32200D02*
Y32467D01*
X27953Y32600D01*
X28087Y32467D01*
Y32200D01*
Y32400D01*
X27820D01*
X28220Y32200D02*
Y32600D01*
X28486Y32200D01*
Y32600D01*
X28620Y32200D02*
X28753D01*
X28686D01*
Y32600D01*
X28620Y32533D01*
X27800Y29810D02*
Y30077D01*
X27933Y30210D01*
X28067Y30077D01*
Y29810D01*
Y30010D01*
X27800D01*
X28200Y29810D02*
Y30210D01*
X28466Y29810D01*
Y30210D01*
X28866Y29810D02*
X28600D01*
X28866Y30077D01*
Y30143D01*
X28800Y30210D01*
X28666D01*
X28600Y30143D01*
X27820Y27420D02*
Y27687D01*
X27953Y27820D01*
X28087Y27687D01*
Y27420D01*
Y27620D01*
X27820D01*
X28220Y27420D02*
Y27820D01*
X28486Y27420D01*
Y27820D01*
X28620Y27753D02*
X28686Y27820D01*
X28820D01*
X28886Y27753D01*
Y27687D01*
X28820Y27620D01*
X28753D01*
X28820D01*
X28886Y27553D01*
Y27487D01*
X28820Y27420D01*
X28686D01*
X28620Y27487D01*
X27820Y24990D02*
Y25257D01*
X27953Y25390D01*
X28087Y25257D01*
Y24990D01*
Y25190D01*
X27820D01*
X28220Y24990D02*
Y25390D01*
X28486Y24990D01*
Y25390D01*
X28820Y24990D02*
Y25390D01*
X28620Y25190D01*
X28886D01*
X32020Y32220D02*
Y32487D01*
X32153Y32620D01*
X32287Y32487D01*
Y32220D01*
Y32420D01*
X32020D01*
X32420Y32220D02*
Y32620D01*
X32686Y32220D01*
Y32620D01*
X33086D02*
X32820D01*
Y32420D01*
X32953Y32487D01*
X33020D01*
X33086Y32420D01*
Y32287D01*
X33020Y32220D01*
X32886D01*
X32820Y32287D01*
X32020Y29790D02*
Y30057D01*
X32153Y30190D01*
X32287Y30057D01*
Y29790D01*
Y29990D01*
X32020D01*
X32420Y29790D02*
Y30190D01*
X32686Y29790D01*
Y30190D01*
X33086D02*
X32953Y30123D01*
X32820Y29990D01*
Y29857D01*
X32886Y29790D01*
X33020D01*
X33086Y29857D01*
Y29923D01*
X33020Y29990D01*
X32820D01*
X32040Y25030D02*
Y25297D01*
X32173Y25430D01*
X32307Y25297D01*
Y25030D01*
Y25230D01*
X32040D01*
X32440Y25030D02*
Y25430D01*
X32706Y25030D01*
Y25430D01*
X32840Y25363D02*
X32906Y25430D01*
X33040D01*
X33106Y25363D01*
Y25297D01*
X33040Y25230D01*
X33106Y25163D01*
Y25097D01*
X33040Y25030D01*
X32906D01*
X32840Y25097D01*
Y25163D01*
X32906Y25230D01*
X32840Y25297D01*
Y25363D01*
X32906Y25230D02*
X33040D01*
X32020Y27380D02*
Y27647D01*
X32153Y27780D01*
X32287Y27647D01*
Y27380D01*
Y27580D01*
X32020D01*
X32420Y27380D02*
Y27780D01*
X32686Y27380D01*
Y27780D01*
X32820D02*
X33086D01*
Y27713D01*
X32820Y27447D01*
Y27380D01*
X46477Y42380D02*
X46343D01*
X46410D01*
Y42047D01*
X46343Y41980D01*
X46277D01*
X46210Y42047D01*
X46610Y41980D02*
X46743D01*
X46677D01*
Y42380D01*
X46610Y42313D01*
X47210Y41980D02*
X46943D01*
X47210Y42247D01*
Y42313D01*
X47143Y42380D01*
X47010D01*
X46943Y42313D01*
X16870Y23640D02*
Y24040D01*
X17003Y23907D01*
X17137Y24040D01*
Y23640D01*
X17470Y24040D02*
X17337D01*
X17270Y23973D01*
Y23707D01*
X17337Y23640D01*
X17470D01*
X17536Y23707D01*
Y23973D01*
X17470Y24040D01*
X17670D02*
X17936D01*
X17803D01*
Y23640D01*
X18070Y23573D02*
X18336D01*
X18469Y23640D02*
Y24040D01*
X18669D01*
X18736Y23973D01*
Y23840D01*
X18669Y23773D01*
X18469D01*
X19069Y24040D02*
X18936D01*
X18869Y23973D01*
Y23707D01*
X18936Y23640D01*
X19069D01*
X19136Y23707D01*
Y23973D01*
X19069Y24040D01*
X19269D02*
Y23640D01*
X19403Y23773D01*
X19536Y23640D01*
Y24040D01*
X36660Y40180D02*
Y39780D01*
X36860D01*
X36927Y39847D01*
Y39913D01*
X36860Y39980D01*
X36660D01*
X36860D01*
X36927Y40047D01*
Y40113D01*
X36860Y40180D01*
X36660D01*
X37060D02*
X37326D01*
X37193D01*
Y39780D01*
X37460Y39713D02*
X37726D01*
X38126Y40180D02*
X37860D01*
Y39780D01*
X38126D01*
X37860Y39980D02*
X37993D01*
X38259Y40180D02*
X38526Y39780D01*
Y40180D02*
X38259Y39780D01*
X38659Y40180D02*
X38926D01*
X38793D01*
Y39780D01*
X42520Y27550D02*
X42920D01*
Y27750D01*
X42853Y27817D01*
X42787D01*
X42720Y27750D01*
Y27550D01*
Y27750D01*
X42653Y27817D01*
X42587D01*
X42520Y27750D01*
Y27550D01*
Y27950D02*
X42853D01*
X42920Y28017D01*
Y28150D01*
X42853Y28216D01*
X42520D01*
X42920Y28350D02*
X42520D01*
X42653Y28483D01*
X42520Y28616D01*
X42920D01*
Y28750D02*
X42520D01*
Y28950D01*
X42587Y29016D01*
X42720D01*
X42787Y28950D01*
Y28750D01*
X42920Y29149D02*
Y29283D01*
Y29216D01*
X42520D01*
X42587Y29149D01*
X40150Y27550D02*
X40550D01*
Y27750D01*
X40483Y27817D01*
X40417D01*
X40350Y27750D01*
Y27550D01*
Y27750D01*
X40283Y27817D01*
X40217D01*
X40150Y27750D01*
Y27550D01*
Y27950D02*
X40483D01*
X40550Y28017D01*
Y28150D01*
X40483Y28216D01*
X40150D01*
X40550Y28350D02*
X40150D01*
X40283Y28483D01*
X40150Y28616D01*
X40550D01*
Y28750D02*
X40150D01*
Y28950D01*
X40217Y29016D01*
X40350D01*
X40417Y28950D01*
Y28750D01*
X40550Y29416D02*
Y29149D01*
X40283Y29416D01*
X40217D01*
X40150Y29349D01*
Y29216D01*
X40217Y29149D01*
X41200Y32980D02*
X41600D01*
Y33180D01*
X41533Y33247D01*
X41467D01*
X41400Y33180D01*
Y32980D01*
Y33180D01*
X41333Y33247D01*
X41267D01*
X41200Y33180D01*
Y32980D01*
Y33380D02*
X41533D01*
X41600Y33447D01*
Y33580D01*
X41533Y33646D01*
X41200D01*
X41600Y33780D02*
X41200D01*
X41333Y33913D01*
X41200Y34046D01*
X41600D01*
Y34180D02*
X41200D01*
Y34380D01*
X41267Y34446D01*
X41400D01*
X41467Y34380D01*
Y34180D01*
X41267Y34579D02*
X41200Y34646D01*
Y34779D01*
X41267Y34846D01*
X41333D01*
X41400Y34779D01*
Y34713D01*
Y34779D01*
X41467Y34846D01*
X41533D01*
X41600Y34779D01*
Y34646D01*
X41533Y34579D01*
X38810Y32980D02*
X39210D01*
Y33180D01*
X39143Y33247D01*
X39077D01*
X39010Y33180D01*
Y32980D01*
Y33180D01*
X38943Y33247D01*
X38877D01*
X38810Y33180D01*
Y32980D01*
Y33380D02*
X39143D01*
X39210Y33447D01*
Y33580D01*
X39143Y33646D01*
X38810D01*
X39210Y33780D02*
X38810D01*
X38943Y33913D01*
X38810Y34046D01*
X39210D01*
Y34180D02*
X38810D01*
Y34380D01*
X38877Y34446D01*
X39010D01*
X39077Y34380D01*
Y34180D01*
X39210Y34779D02*
X38810D01*
X39010Y34579D01*
Y34846D01*
X38050Y30930D02*
Y31330D01*
X38250D01*
X38317Y31263D01*
Y31130D01*
X38250Y31063D01*
X38050D01*
X38183D02*
X38317Y30930D01*
X38450D02*
X38583D01*
X38517D01*
Y31330D01*
X38450Y31263D01*
X37980Y31920D02*
Y32320D01*
X38180D01*
X38247Y32253D01*
Y32120D01*
X38180Y32053D01*
X37980D01*
X38113D02*
X38247Y31920D01*
X38646D02*
X38380D01*
X38646Y32187D01*
Y32253D01*
X38580Y32320D01*
X38447D01*
X38380Y32253D01*
X40460Y30900D02*
Y31300D01*
X40660D01*
X40727Y31233D01*
Y31100D01*
X40660Y31033D01*
X40460D01*
X40593D02*
X40727Y30900D01*
X40860Y31233D02*
X40927Y31300D01*
X41060D01*
X41126Y31233D01*
Y31167D01*
X41060Y31100D01*
X40993D01*
X41060D01*
X41126Y31033D01*
Y30967D01*
X41060Y30900D01*
X40927D01*
X40860Y30967D01*
X40470Y31930D02*
Y32330D01*
X40670D01*
X40737Y32263D01*
Y32130D01*
X40670Y32063D01*
X40470D01*
X40603D02*
X40737Y31930D01*
X41070D02*
Y32330D01*
X40870Y32130D01*
X41136D01*
X36840Y23790D02*
Y24190D01*
X37040D01*
X37107Y24123D01*
Y23990D01*
X37040Y23923D01*
X36840D01*
X36973D02*
X37107Y23790D01*
X37506Y24190D02*
X37240D01*
Y23990D01*
X37373Y24057D01*
X37440D01*
X37506Y23990D01*
Y23857D01*
X37440Y23790D01*
X37307D01*
X37240Y23857D01*
X36860Y24870D02*
Y25270D01*
X37060D01*
X37127Y25203D01*
Y25070D01*
X37060Y25003D01*
X36860D01*
X36993D02*
X37127Y24870D01*
X37526Y25270D02*
X37393Y25203D01*
X37260Y25070D01*
Y24937D01*
X37327Y24870D01*
X37460D01*
X37526Y24937D01*
Y25003D01*
X37460Y25070D01*
X37260D01*
X38130Y25980D02*
X37730D01*
Y26180D01*
X37797Y26247D01*
X37930D01*
X37997Y26180D01*
Y25980D01*
X37730Y26380D02*
X38130D01*
X37930D01*
Y26646D01*
X37730D01*
X38130D01*
X37730Y26980D02*
Y26846D01*
X37797Y26780D01*
X38063D01*
X38130Y26846D01*
Y26980D01*
X38063Y27046D01*
X37797D01*
X37730Y26980D01*
X42190Y32040D02*
Y32173D01*
Y32107D01*
X42590D01*
Y32040D01*
Y32173D01*
Y32373D02*
X42190D01*
Y32573D01*
X42257Y32640D01*
X42390D01*
X42457Y32573D01*
Y32373D01*
Y32507D02*
X42590Y32640D01*
X42190Y32773D02*
X42590D01*
Y32973D01*
X42523Y33040D01*
X42457D01*
X42390Y32973D01*
Y32773D01*
Y32973D01*
X42323Y33040D01*
X42257D01*
X42190Y32973D01*
Y32773D01*
X49727Y40460D02*
X49460D01*
Y40060D01*
X49727D01*
X49460Y40260D02*
X49593D01*
X49860Y40460D02*
X50126Y40060D01*
Y40460D02*
X49860Y40060D01*
X50260Y40460D02*
X50526D01*
X50393D01*
Y40060D01*
X43180Y37000D02*
Y37400D01*
X43380D01*
X43447Y37333D01*
Y37200D01*
X43380Y37133D01*
X43180D01*
X43313D02*
X43447Y37000D01*
X43580Y37400D02*
X43846D01*
Y37333D01*
X43580Y37067D01*
Y37000D01*
X31360Y20200D02*
X31460Y20100D01*
X31660D01*
X31760Y20200D01*
Y20600D01*
X31660Y20700D01*
X31460D01*
X31360Y20600D01*
Y20500D01*
X31460Y20400D01*
X31760D01*
X31960Y20600D02*
X32060Y20700D01*
X32260D01*
X32360Y20600D01*
Y20500D01*
X32260Y20400D01*
X32160D01*
X32260D01*
X32360Y20300D01*
Y20200D01*
X32260Y20100D01*
X32060D01*
X31960Y20200D01*
X32560Y20100D02*
Y20200D01*
X32660D01*
Y20100D01*
X32560D01*
X33459D02*
X33059D01*
X33459Y20500D01*
Y20600D01*
X33359Y20700D01*
X33159D01*
X33059Y20600D01*
X33959Y20100D02*
Y20700D01*
X33659Y20400D01*
X34059D01*
X34259Y20100D02*
Y20500D01*
X34359D01*
X34459Y20400D01*
Y20100D01*
Y20400D01*
X34559Y20500D01*
X34659Y20400D01*
Y20100D01*
X34859D02*
Y20500D01*
X34959D01*
X35059Y20400D01*
Y20100D01*
Y20400D01*
X35159Y20500D01*
X35259Y20400D01*
Y20100D01*
X52060Y30220D02*
Y29820D01*
X52360D01*
X52260Y30020D01*
Y30120D01*
X52360Y30220D01*
X52560D01*
X52660Y30120D01*
Y29920D01*
X52560Y29820D01*
X52060Y30820D02*
Y30420D01*
X52360D01*
X52260Y30620D01*
Y30720D01*
X52360Y30820D01*
X52560D01*
X52660Y30720D01*
Y30520D01*
X52560Y30420D01*
X52660Y31020D02*
X52560D01*
Y31120D01*
X52660D01*
Y31020D01*
X52060Y31919D02*
X52160Y31719D01*
X52360Y31519D01*
X52560D01*
X52660Y31619D01*
Y31819D01*
X52560Y31919D01*
X52460D01*
X52360Y31819D01*
Y31519D01*
X52160Y32119D02*
X52060Y32219D01*
Y32419D01*
X52160Y32519D01*
X52560D01*
X52660Y32419D01*
Y32219D01*
X52560Y32119D01*
X52160D01*
X52660Y32719D02*
X52260D01*
Y32819D01*
X52360Y32919D01*
X52660D01*
X52360D01*
X52260Y33019D01*
X52360Y33119D01*
X52660D01*
Y33319D02*
X52260D01*
Y33419D01*
X52360Y33519D01*
X52660D01*
X52360D01*
X52260Y33619D01*
X52360Y33719D01*
X52660D01*
M02*
