%FSLAX24Y24*%
%MOIN*%
G70*
G01*
G75*
G04 Layer_Color=255*
%ADD10R,0.0550X0.0520*%
%ADD11C,0.0100*%
%ADD12C,0.0787*%
%ADD13C,0.0680*%
%ADD14R,0.0591X0.0591*%
%ADD15C,0.0591*%
%ADD16C,0.0650*%
%ADD17R,0.0600X0.0600*%
%ADD18C,0.0600*%
%ADD19R,0.0550X0.0550*%
%ADD20C,0.0800*%
%ADD21R,0.0800X0.0800*%
%ADD22R,0.0600X0.0600*%
%ADD23R,0.0650X0.0650*%
%ADD24R,0.0550X0.0550*%
%ADD25R,0.0650X0.0650*%
%ADD26C,0.0500*%
%ADD27R,0.0500X0.0500*%
%ADD28R,0.0450X0.0450*%
%ADD29R,0.0500X0.0500*%
%ADD30C,0.0080*%
D12*
X47928Y22392D02*
D03*
X15841D02*
D03*
X15911Y41240D02*
D03*
X45438D02*
D03*
D13*
X26630Y30408D02*
D03*
Y25290D02*
D03*
X35470Y39218D02*
D03*
Y34100D02*
D03*
X26630Y39208D02*
D03*
Y34090D02*
D03*
X25630Y30408D02*
D03*
X28470Y39218D02*
D03*
X34470D02*
D03*
X19630Y30408D02*
D03*
X31470Y39218D02*
D03*
X34470Y34100D02*
D03*
X33470D02*
D03*
X32470D02*
D03*
X31470D02*
D03*
X30470D02*
D03*
X29470D02*
D03*
X20630Y34090D02*
D03*
X21630D02*
D03*
X22630D02*
D03*
X23630D02*
D03*
X24630D02*
D03*
X25630D02*
D03*
X22630Y39208D02*
D03*
X21630D02*
D03*
X20630D02*
D03*
Y25290D02*
D03*
X21630D02*
D03*
X22630D02*
D03*
X23630D02*
D03*
X24630D02*
D03*
X25630D02*
D03*
X22630Y30408D02*
D03*
X19630Y39208D02*
D03*
X25630D02*
D03*
X24630D02*
D03*
X23630D02*
D03*
X33470Y39218D02*
D03*
X32470D02*
D03*
X30470D02*
D03*
X29470D02*
D03*
X24630Y30408D02*
D03*
X23630D02*
D03*
X21630D02*
D03*
X20630D02*
D03*
X51050Y37350D02*
D03*
Y39350D02*
D03*
X50050Y37350D02*
D03*
Y38350D02*
D03*
X51050D02*
D03*
X50050Y35350D02*
D03*
X51050D02*
D03*
X50050Y28350D02*
D03*
X51050D02*
D03*
Y29350D02*
D03*
X50050D02*
D03*
Y30350D02*
D03*
X51050D02*
D03*
Y32350D02*
D03*
X50050D02*
D03*
Y31350D02*
D03*
X51050D02*
D03*
Y27350D02*
D03*
X50050D02*
D03*
Y26350D02*
D03*
X51050D02*
D03*
Y25350D02*
D03*
X50050D02*
D03*
Y24350D02*
D03*
X51050D02*
D03*
X50050Y36350D02*
D03*
X51050D02*
D03*
Y34350D02*
D03*
X50050Y33350D02*
D03*
X51050D02*
D03*
X50050Y34350D02*
D03*
X47780Y35290D02*
D03*
X46780D02*
D03*
X47780Y36290D02*
D03*
X46780D02*
D03*
X47780Y37290D02*
D03*
X46780D02*
D03*
X47780Y38290D02*
D03*
X46780D02*
D03*
X47780Y39290D02*
D03*
X46780D02*
D03*
X47780Y40290D02*
D03*
X46780D02*
D03*
X47780Y41290D02*
D03*
Y24290D02*
D03*
X46780D02*
D03*
Y25290D02*
D03*
X47780D02*
D03*
X46780Y26290D02*
D03*
X47780D02*
D03*
X46780Y30290D02*
D03*
X47780D02*
D03*
X46780Y29290D02*
D03*
X47780D02*
D03*
Y32290D02*
D03*
X46780Y31290D02*
D03*
X47780D02*
D03*
X46780Y28290D02*
D03*
X47780D02*
D03*
X46780Y27290D02*
D03*
X47780D02*
D03*
Y34290D02*
D03*
X46780Y33290D02*
D03*
X47780D02*
D03*
X46780Y34290D02*
D03*
Y32290D02*
D03*
X27731Y22392D02*
D03*
X26731D02*
D03*
X25731D02*
D03*
X24731D02*
D03*
X23731D02*
D03*
D14*
X25350Y23900D02*
D03*
D15*
X26350D02*
D03*
D16*
X37150Y26925D02*
D03*
Y27713D02*
D03*
X33728Y24440D02*
D03*
X34515D02*
D03*
X33728Y29240D02*
D03*
X34515D02*
D03*
X33728Y31640D02*
D03*
X34515D02*
D03*
X29528Y24440D02*
D03*
X30315D02*
D03*
X29528Y26840D02*
D03*
X30315D02*
D03*
X29528Y29240D02*
D03*
X30315D02*
D03*
X29528Y31640D02*
D03*
X30315D02*
D03*
X41950Y25232D02*
D03*
Y24445D02*
D03*
X44350Y25232D02*
D03*
Y24445D02*
D03*
X44340Y29243D02*
D03*
Y28455D02*
D03*
X33728Y26840D02*
D03*
X34515D02*
D03*
X39550Y24445D02*
D03*
Y25232D02*
D03*
D17*
X37150Y28500D02*
D03*
X44340Y30030D02*
D03*
X41950Y26020D02*
D03*
X44350D02*
D03*
X39550D02*
D03*
D18*
X18637Y23100D02*
D03*
X17418Y36390D02*
D03*
Y33790D02*
D03*
Y31190D02*
D03*
Y28590D02*
D03*
Y25990D02*
D03*
X41980Y28493D02*
D03*
X39580D02*
D03*
X40640Y33933D02*
D03*
X38240D02*
D03*
X39582Y39200D02*
D03*
X38007D02*
D03*
X38795D02*
D03*
X17418Y38990D02*
D03*
D19*
X17850Y23100D02*
D03*
X16630Y36390D02*
D03*
Y33790D02*
D03*
Y31190D02*
D03*
Y28590D02*
D03*
Y25990D02*
D03*
X37220Y39200D02*
D03*
X16630Y38990D02*
D03*
D20*
X32660Y41290D02*
D03*
X31660D02*
D03*
X29660D02*
D03*
X30660D02*
D03*
X28660D02*
D03*
X37826D02*
D03*
X34660D02*
D03*
X33660D02*
D03*
X38826D02*
D03*
X39826D02*
D03*
X40826D02*
D03*
X41826D02*
D03*
X42826D02*
D03*
X43826D02*
D03*
X30865Y22392D02*
D03*
X31865D02*
D03*
X32865D02*
D03*
X33865D02*
D03*
X34865D02*
D03*
X35865D02*
D03*
X36865D02*
D03*
X39833D02*
D03*
X40833D02*
D03*
X41833D02*
D03*
X42833D02*
D03*
X43833D02*
D03*
X44833D02*
D03*
X45833D02*
D03*
X26060Y41290D02*
D03*
X25060D02*
D03*
X24060D02*
D03*
X23060D02*
D03*
X22060D02*
D03*
X21060D02*
D03*
X20060D02*
D03*
D21*
X27660D02*
D03*
X36826D02*
D03*
X29865Y22392D02*
D03*
X38833D02*
D03*
X19060Y41290D02*
D03*
D22*
X32940Y24440D02*
D03*
Y29240D02*
D03*
Y31640D02*
D03*
X28740Y24440D02*
D03*
Y26840D02*
D03*
Y29240D02*
D03*
Y31640D02*
D03*
X32940Y26840D02*
D03*
D23*
X28470Y34100D02*
D03*
X19630Y34090D02*
D03*
Y25290D02*
D03*
X22731Y22392D02*
D03*
D24*
X41980Y29280D02*
D03*
X39580D02*
D03*
X40640Y34720D02*
D03*
X38240D02*
D03*
D25*
X50050Y39350D02*
D03*
X46780Y41290D02*
D03*
D26*
X43163Y32450D02*
D03*
Y33237D02*
D03*
Y34025D02*
D03*
Y34812D02*
D03*
X43950D02*
D03*
Y34025D02*
D03*
Y33237D02*
D03*
X20369Y22150D02*
D03*
X21550Y24315D02*
D03*
X20369D02*
D03*
X41813Y36700D02*
D03*
D27*
X43950Y32450D02*
D03*
D28*
X21550Y22150D02*
D03*
D29*
X42600Y36700D02*
D03*
M02*
